<svg xmlns="http://www.w3.org/2000/svg" width="1em" height="1em" viewBox="0 0 256 256"><path fill="currentColor" d="M224 128a16 16 0 0 1-16 16h-16v16a16 16 0 0 1-16 16h-16a16 16 0 0 1-16-16v-16h-32v16a16 16 0 0 1-16 16H80a16 16 0 0 1-16-16v-16H48a16 16 0 0 1 0-32h16v-16a16 16 0 0 1 16-16h16a16 16 0 0 1 16 16v16h32V96a16 16 0 0 1 16-16h16a16 16 0 0 1 16 16v16h16a16 16 0 0 1 16 16M144 80H80a32 32 0 0 0-32 32v64a32 32 0 0 0 32 32h64a32 32 0 0 0 32-32V112a32 32 0 0 0-32-32m-40 88a20 20 0 1 1 20-20a20 20 0 0 1-20 20m72-120a24 24 0 0 0-24 24v16h24a24 24 0 0 0 0-48m-48-16h16a8 8 0 0 0 0-16h-16a8 8 0 0 0 0 16"/></svg>
